<?xml version="1.0" encoding="UTF-8" standalone="no"?>
<!DOCTYPE svg PUBLIC "-//W3C//DTD SVG 1.1//EN" "http://www.w3.org/Graphics/SVG/1.1/DTD/svg11.dtd">
<svg width="128px" height="128px" viewBox="0 0 1042 1264" version="1.1" xmlns="http://www.w3.org/2000/svg" xmlns:xlink="http://www.w3.org/1999/xlink" xml:space="preserve" xmlns:serif="http://www.serif.com/" style="fill-rule:evenodd;clip-rule:evenodd;stroke-linecap:round;stroke-linejoin:round;stroke-miterlimit:1.5;">
    <g transform="matrix(1,0,0,1,-479.166667,-257.489078)">
        <g transform="matrix(0.778905,0,0,0.849558,226.166329,90.707965)">
            <path d="M1153.971,500.345C1430.709,565.748 1635.417,796.285 1635.417,1070.312C1635.417,1395.137 1347.779,1658.854 993.49,1658.854C639.2,1658.854 351.563,1395.137 351.563,1070.312C351.563,796.285 556.27,565.748 833.008,500.345L833.008,366.248L712.176,366.248C690.293,366.248 672.526,349.959 672.526,329.895L672.526,257.19C672.526,237.127 690.293,220.838 712.176,220.838L1274.803,220.838C1296.687,220.838 1314.453,237.127 1314.453,257.19L1314.453,329.895C1314.453,349.959 1296.687,366.248 1274.803,366.248L1153.971,366.248L1153.971,500.345Z" style="fill:rgb(235,235,235);fill-opacity:0;stroke:black;stroke-width:51.12px;"/>
        </g>
        <g transform="matrix(0.778905,0,0,0.849558,226.166329,90.707965)">
            <ellipse cx="993.49" cy="1070.312" rx="584.154" ry="535.573" style="fill:rgb(235,235,235);fill-opacity:0;"/>
            <path d="M993.49,559.262C978.728,559.262 966.742,548.274 966.742,534.74C966.742,521.205 978.727,510.217 993.489,510.217L993.491,510.217C1008.253,510.217 1020.237,521.205 1020.237,534.74C1020.237,548.274 1008.252,559.262 993.49,559.262ZM1272.149,627.698C1259.373,620.916 1255.006,605.901 1262.402,594.188C1269.799,582.475 1286.176,578.472 1298.951,585.253C1311.727,592.034 1316.094,607.049 1308.698,618.762C1301.301,630.475 1284.924,634.479 1272.149,627.698ZM1476.253,814.828C1468.857,803.115 1473.224,788.1 1485.999,781.319C1498.775,774.538 1515.152,778.542 1522.548,790.255C1529.945,801.967 1525.578,816.983 1512.802,823.764C1500.027,830.545 1483.65,826.541 1476.253,814.828ZM1550.896,1070.312C1550.896,1056.778 1562.881,1045.789 1577.643,1045.789C1592.405,1045.789 1604.39,1056.778 1604.39,1070.312C1604.39,1083.846 1592.405,1094.835 1577.643,1094.835C1562.881,1094.835 1550.896,1083.846 1550.896,1070.312ZM1476.253,1325.797C1483.65,1314.084 1500.027,1310.08 1512.802,1316.861C1525.577,1323.643 1529.944,1338.658 1522.548,1350.371C1515.152,1362.084 1498.774,1366.088 1485.999,1359.307C1473.224,1352.525 1468.857,1337.51 1476.253,1325.797ZM1272.148,1512.928C1284.924,1506.146 1301.301,1510.15 1308.697,1521.863C1316.094,1533.576 1311.726,1548.591 1298.951,1555.372C1286.176,1562.154 1269.799,1558.15 1262.402,1546.437C1255.006,1534.724 1259.373,1519.709 1272.148,1512.928ZM993.49,1581.363C1008.252,1581.363 1020.237,1592.351 1020.237,1605.885C1020.237,1619.42 1008.252,1630.408 993.49,1630.408C978.728,1630.408 966.743,1619.42 966.743,1605.885C966.743,1592.351 978.728,1581.363 993.49,1581.363ZM714.83,1512.927C727.606,1519.709 731.973,1534.724 724.577,1546.437C717.18,1558.15 700.803,1562.153 688.028,1555.372C675.252,1548.591 670.885,1533.576 678.281,1521.863C685.678,1510.15 702.055,1506.146 714.83,1512.927ZM510.726,1325.797C518.122,1337.51 513.755,1352.525 500.98,1359.306C488.204,1366.087 471.827,1362.083 464.431,1350.37C457.035,1338.658 461.402,1323.642 474.177,1316.861C486.952,1310.08 503.329,1314.084 510.726,1325.797ZM436.083,1070.313C436.083,1083.847 424.098,1094.836 409.336,1094.836C394.574,1094.836 382.589,1083.847 382.589,1070.313C382.589,1056.779 394.574,1045.79 409.336,1045.79C424.098,1045.79 436.083,1056.779 436.083,1070.313ZM510.726,814.828C503.33,826.541 486.953,830.545 474.177,823.764C461.402,816.982 457.035,801.967 464.431,790.254C471.828,778.541 488.205,774.537 500.98,781.318C513.756,788.1 518.122,803.115 510.726,814.828ZM714.831,627.697C702.055,634.479 685.678,630.475 678.282,618.762C670.886,607.049 675.253,592.034 688.028,585.253C700.804,578.471 717.181,582.475 724.577,594.188C731.973,605.901 727.606,620.916 714.831,627.697Z"/>
        </g>
        <g transform="matrix(1.2,0,0,1.031081,-200,-31.081081)">
            <path d="M1125,1000L1000,1000L1000,660.55" style="fill:none;stroke:black;stroke-width:37.24px;"/>
        </g>
        <g transform="matrix(2.586441,0,0,2.857143,-2086.440678,-1357.142857)">
            <ellipse cx="1193.316" cy="825" rx="193.316" ry="175" style="fill:rgb(235,235,235);fill-opacity:0;stroke:black;stroke-width:15.29px;stroke-miterlimit:1;"/>
        </g>
    </g>
</svg>
