<?xml version="1.0" encoding="UTF-8" standalone="no"?><!DOCTYPE svg PUBLIC "-//W3C//DTD SVG 1.1//EN" "http://www.w3.org/Graphics/SVG/1.1/DTD/svg11.dtd"><svg width="100%" height="100%" viewBox="0 0 1500 1500" version="1.1" xmlns="http://www.w3.org/2000/svg" xmlns:xlink="http://www.w3.org/1999/xlink" xml:space="preserve" xmlns:serif="http://www.serif.com/" style="fill-rule:evenodd;clip-rule:evenodd;stroke-linecap:round;stroke-linejoin:round;stroke-miterlimit:1.5;"><path d="M67.5,750c0,0 432.5,-375 682.5,-375c250,0 682.5,375 682.5,375c0,0 -432.5,375 -682.5,375c-250,0 -682.5,-375 -682.5,-375Z" style="fill:none;stroke:#202020;stroke-width:133.33px;"/><path d="M830.603,562.5c103.484,0 187.5,84.016 187.5,187.5c0,103.484 -84.016,187.5 -187.5,187.5c-103.484,0 -187.5,-84.016 -187.5,-187.5c0,-103.484 84.016,-187.5 187.5,-187.5Zm0,93.75c51.742,0 93.75,42.008 93.75,93.75c0,51.742 -42.008,93.75 -93.75,93.75c-51.742,0 -93.75,-42.008 -93.75,-93.75c0,-51.742 42.008,-93.75 93.75,-93.75Z" style="fill:#202020;stroke:#202020;stroke-opacity:0;stroke-width:208.33px;"/></svg>