<?xml version="1.0" encoding="UTF-8" standalone="no"?>
<!DOCTYPE svg PUBLIC "-//W3C//DTD SVG 1.1//EN" "http://www.w3.org/Graphics/SVG/1.1/DTD/svg11.dtd">
<svg width="128px" height="128px" viewBox="0 0 1603 1603" version="1.1" xmlns="http://www.w3.org/2000/svg" xmlns:xlink="http://www.w3.org/1999/xlink" xml:space="preserve" xmlns:serif="http://www.serif.com/" style="fill-rule:evenodd;clip-rule:evenodd;stroke-linecap:round;stroke-linejoin:round;stroke-miterlimit:1.5;">
    <g transform="matrix(1,0,0,1,-198.8856,-198.8856)">
        <g transform="matrix(0.932022,-0.932022,0.741883,0.741883,-643.589343,1169.484223)">
            <path d="M782.986,278.646C782.986,147.135 867.974,40.365 972.656,40.365C1077.338,40.365 1162.326,147.135 1162.326,278.646L1162.326,755.208L1541.667,755.208C1646.348,755.208 1731.337,861.979 1731.337,993.49C1731.337,1125.001 1646.348,1231.771 1541.667,1231.771L1162.326,1231.771L1162.326,1708.333C1162.326,1839.844 1077.338,1946.615 972.656,1946.615C867.974,1946.615 782.986,1839.844 782.986,1708.333L782.986,1231.771L403.646,1231.771C298.964,1231.771 213.976,1125.001 213.976,993.49C213.976,861.979 298.964,755.208 403.646,755.208L782.986,755.208L782.986,278.646Z" style="fill:rgb(235,235,235);fill-opacity:0;stroke:black;stroke-width:34.98px;"/>
        </g>
    </g>
</svg>
