<?xml version="1.0" encoding="UTF-8" standalone="no"?><!DOCTYPE svg PUBLIC "-//W3C//DTD SVG 1.1//EN" "http://www.w3.org/Graphics/SVG/1.1/DTD/svg11.dtd"><svg width="100%" height="100%" viewBox="0 0 133 133" version="1.1" xmlns="http://www.w3.org/2000/svg" xmlns:xlink="http://www.w3.org/1999/xlink" xml:space="preserve" xmlns:serif="http://www.serif.com/" style="fill-rule:evenodd;clip-rule:evenodd;stroke-linecap:round;stroke-linejoin:round;stroke-miterlimit:1.5;"><path d="M20.593,84.926c-0.552,-1.33 -1.047,-2.688 -1.483,-4.074l-9.642,-0c-4.076,0 -7.385,-3.309 -7.385,-7.385l0,-14.769c0,-4.076 3.309,-7.385 7.385,-7.385l9.642,0c0.436,-1.385 0.931,-2.744 1.483,-4.074c0.55,-1.33 1.16,-2.641 1.832,-3.929l-6.818,-6.818c-2.882,-2.882 -2.882,-7.561 0,-10.443l10.443,-10.443c2.882,-2.882 7.561,-2.882 10.443,-0l6.818,6.818c1.288,-0.671 2.599,-1.282 3.929,-1.832c1.33,-0.552 2.688,-1.047 4.074,-1.483l0,-9.642c0,-4.076 3.309,-7.385 7.385,-7.385l14.769,0c4.076,0 7.385,3.309 7.385,7.385l0,9.642c1.385,0.436 2.744,0.931 4.074,1.483c1.33,0.55 2.641,1.16 3.929,1.832l6.818,-6.818c2.882,-2.882 7.561,-2.882 10.443,-0l10.443,10.443c2.882,2.882 2.882,7.561 -0,10.443l-6.818,6.818c0.671,1.288 1.282,2.599 1.832,3.929c0.552,1.33 1.047,2.688 1.483,4.074l9.642,0c4.076,0 7.385,3.309 7.385,7.385l0,14.769c0,4.076 -3.309,7.385 -7.385,7.385l-9.642,0c-0.436,1.385 -0.931,2.744 -1.483,4.074c-0.55,1.33 -1.16,2.641 -1.832,3.929l6.818,6.818c2.882,2.882 2.882,7.561 0,10.443l-10.443,10.443c-2.882,2.882 -7.561,2.882 -10.443,0l-6.818,-6.818c-1.288,0.671 -2.599,1.282 -3.929,1.832c-1.33,0.552 -2.688,1.047 -4.074,1.483l-0,9.642c0,4.076 -3.309,7.385 -7.385,7.385l-14.769,0c-4.076,0 -7.385,-3.309 -7.385,-7.385l0,-9.642c-1.385,-0.436 -2.744,-0.931 -4.074,-1.483c-1.33,-0.55 -2.641,-1.16 -3.929,-1.832l-6.818,6.818c-2.882,2.882 -7.561,2.882 -10.443,0l-10.443,-10.443c-2.882,-2.882 -2.882,-7.561 0,-10.443l6.818,-6.818c-0.671,-1.288 -1.282,-2.599 -1.832,-3.929Z" style="fill:#fff;fill-opacity:0;stroke:#000;stroke-width:4.17px;"/><circle cx="66.083" cy="66.083" r="24.615" style="fill:#fff;fill-opacity:0;stroke:#000;stroke-width:4.17px;"/></svg>